
nColumns=19
nRows=24
DataType=double
version=3
OpenSimVersion=4.4-2022-10-11-798caa840
endheader
time	ground_force_calcn_r_vx	ground_force_calcn_r_vy	ground_force_calcn_r_vz	ground_force_calcn_r_px	ground_force_calcn_r_py	ground_force_calcn_r_pz	ground_force_calcn_r_mx	ground_force_calcn_r_my	ground_force_calcn_r_mz	ground_force_calcn_l_vx	ground_force_calcn_l_vy	ground_force_calcn_l_vz	ground_force_calcn_l_px	ground_force_calcn_l_py	ground_force_calcn_l_pz	ground_force_calcn_l_mx	ground_force_calcn_l_my	ground_force_calcn_l_mz
1.34	0	0	0	0	0	0	0	0	0	-33.8851	23.3756	8.532389999999999	-0.0863278	0	-0.494149	2.77249	-1.9126	-0.698122
1.35	-88.53619999999999	97.8687	-24.9279	-0.111961	0	-0.405667	-1.09494	1.21035	-0.308285	-203.355	260.339	46.8296	-0.168845	0	-0.761377	1.61601	-2.06885	-0.372144
1.36	-276.086	455.115	-84.0247	-0.157282	0	-0.395049	-1.70945	2.81795	-0.520257	-246.798	447.259	88.27209999999999	-0.190282	0	-0.771871	1.64083	-2.9736	-0.586877
1.37	-170.105	843.765	-94.4534	-0.216248	0	-0.407846	-0.671803	3.33232	-0.373029	-102.622	730.623	121.952	-0.244593	0	-0.771737	0.297225	-2.1161	-0.353211
1.38	-34.0565	1429.76	-26.6216	-0.258129	0	-0.424521	0.0971706	-4.0794	0.075957	-18.0324	1122.56	112.728	-0.280513	0	-0.76546	-0.0351105	2.18572	0.219491
1.39	-122.672	1328.53	5.26415	-0.257376	0	-0.429508	0.709906	-7.68822	-0.0304638	-106.421	1005.53	94.6189	-0.27646	0	-0.764131	-0.444515	4.20006	0.395219
1.4	-302.176	752.285	-44.0034	-0.222421	0	-0.4231	1.65329	-4.11596	0.240755	-264.257	637.658	85.51220000000001	-0.238059	0	-0.766581	-0.732812	1.76829	0.237134
1.41	-359.221	486.488	-71.4901	-0.18267	0	-0.417075	0.629571	-0.852619	0.125294	-283.127	441.98	54.7819	-0.202287	0	-0.765211	-0.480578	0.750214	0.0929864
1.42	-278.036	531.451	-68.2919	-0.20581	0	-0.423476	-0.014855	0.0283945	-0.00364872	-232.849	405.674	30.3005	-0.202447	0	-0.763432	-1.2679	2.20896	0.164991
1.43	-157.313	706.9059999999999	-77.73699999999999	-0.242404	0	-0.429267	-0.009134649999999999	0.0410478	-0.00451394	-198.25	502.416	30.5361	-0.229068	0	-0.761691	-1.6357	4.1453	0.251945
1.44	-90.32259999999999	841.227	-81.4145	-0.259249	0	-0.43298	0.107638	-1.00249	0.09702189999999999	-129.144	677.026	47.7111	-0.260552	0	-0.759069	-1.00373	5.26198	0.37082
1.45	-73.6122	862.1849999999999	-65.31359999999999	-0.263975	0	-0.436407	0.168795	-1.97701	0.149766	-46.6427	775.455	78.4682	-0.278375	0	-0.758966	-0.302747	5.0333	0.509319
1.46	-71.5449	807.725	-58.1579	-0.264204	0	-0.4384	0.177653	-2.00566	0.144412	-34.3434	732.032	95.8006	-0.279883	0	-0.760694	-0.231558	4.93567	0.6459279999999999
1.47	-73.4533	732.468	-64.26300000000001	-0.262646	0	-0.438764	0.134206	-1.33829	0.117415	-80.27589999999999	639.13	90.61109999999999	-0.270798	0	-0.762707	-0.726822	5.78672	0.820398
1.48	-78.8426	665.283	-66.47799999999999	-0.260398	0	-0.43914	0.0981667	-0.828342	0.0827716	-105.886	584.524	83.8485	-0.264022	0	-0.763975	-1.22952	6.78735	0.973628
1.49	-77.63590000000001	638.984	-58.0601	-0.259895	0	-0.440893	0.0977963	-0.804915	0.0731372	-94.378	565.9690000000001	83.535	-0.263911	0	-0.7641559999999999	-1.24266	7.45201	1.09989
1.5	-61.5274	660.808	-51.4255	-0.2624	0	-0.44247	0.08986429999999999	-0.965147	0.07510989999999999	-76.0951	550.444	85.5008	-0.264892	0	-0.764132	-1.08015	7.81338	1.21366
1.51	-38.7456	697.9400000000001	-55.6767	-0.265717	0	-0.442796	0.052109	-0.938661	0.07487969999999999	-68.9759	526.532	82.7607	-0.263943	0	-0.764211	-1.08032	8.24666	1.29622
1.52	-22.0245	718.258	-62.1739	-0.267889	0	-0.442569	0.0280113	-0.913497	0.0790742	-67.1759	503.651	75.5865	-0.262342	0	-0.763948	-1.17424	8.80387	1.32126
1.53	-16.0388	716.413	-66.57769999999999	-0.26856	0	-0.442406	0.0204676	-0.914237	0.08496190000000001	-65.7064	489.544	70.7747	-0.261533	0	-0.763718	-1.23924	9.23296	1.33483
1.54	-15.6959	705.7140000000001	-69.0581	-0.268345	0	-0.442365	0.0168192	-0.7562219999999999	0.0740005	-66.5889	484.853	70.49339999999999	-0.260876	0	-0.763599	-1.29306	9.41512	1.36888
1.55	-16.0301	696.7329999999999	-69.6285	-0.267915	0	-0.442461	0.009393830000000001	-0.408294	0.0408032	-69.2903	483.352	69.7184	-0.259793	0	-0.763402	-1.37961	9.62383	1.38813
1.56	-14.3031	694.186	-69.5179	-0.267677	0	-0.442724	0.00115921	-0.0562609	0.00563413	-72.7456	477.836	67.1456	-0.25835	0	-0.763213	-1.50429	9.881069999999999	1.38849
1.57	-10.1946	697.1660000000001	-68.699	-0.267718	0	-0.443117	-0.00210397	0.143882	-0.0141782	-76.2033	468.261	66.4316	-0.25645	0	-0.763269	-1.61096	9.89917	1.40438
